<svg data-v-423bf9ae="" xmlns="http://www.w3.org/2000/svg" viewBox="0 0 1199.411218860403 193" class="fontAboveSlogan"><!----><!----><!----><g data-v-423bf9ae="" id="aad8e6e6-eaca-4281-9689-8b464d5c04be" fill="#000000" transform="matrix(11.776251711630213,0,0,11.776251711630213,-9.11107401287029,-45.242908962264664)"><path d="M4.30 14.11L4.30 14.11Q3.25 14.11 2.45 13.70L2.45 13.70L2.45 13.70Q1.65 13.29 1.22 12.53L1.22 12.53L1.22 12.53Q0.78 11.77 0.78 10.79L0.78 10.79L0.78 7.41L0.78 7.41Q0.78 6.41 1.22 5.66L1.22 5.66L1.22 5.66Q1.65 4.91 2.45 4.50L2.45 4.50L2.45 4.50Q3.25 4.09 4.30 4.09L4.30 4.09L4.30 4.09Q5.33 4.09 6.13 4.49L6.13 4.49L6.13 4.49Q6.92 4.90 7.35 5.60L7.35 5.60L7.35 5.60Q7.78 6.30 7.78 7.18L7.78 7.18L7.78 7.24L7.78 7.24Q7.78 7.46 7.56 7.46L7.56 7.46L6.40 7.46L6.40 7.46Q6.30 7.46 6.24 7.43L6.24 7.43L6.24 7.43Q6.17 7.39 6.17 7.34L6.17 7.34L6.17 7.22L6.17 7.22Q6.17 6.47 5.66 5.98L5.66 5.98L5.66 5.98Q5.15 5.49 4.30 5.49L4.30 5.49L4.30 5.49Q3.44 5.49 2.93 6.00L2.93 6.00L2.93 6.00Q2.41 6.51 2.41 7.35L2.41 7.35L2.41 10.85L2.41 10.85Q2.41 11.69 2.95 12.20L2.95 12.20L2.95 12.20Q3.50 12.71 4.37 12.71L4.37 12.71L4.37 12.71Q5.21 12.71 5.69 12.27L5.69 12.27L5.69 12.27Q6.17 11.83 6.17 11.06L6.17 11.06L6.17 10.21L6.17 10.21Q6.17 10.12 6.09 10.12L6.09 10.12L4.44 10.12L4.44 10.12Q4.21 10.12 4.21 9.90L4.21 9.90L4.21 8.97L4.21 8.97Q4.21 8.75 4.44 8.75L4.44 8.75L7.56 8.75L7.56 8.75Q7.78 8.75 7.78 8.97L7.78 8.97L7.78 10.71L7.78 10.71Q7.78 12.32 6.84 13.22L6.84 13.22L6.84 13.22Q5.89 14.11 4.30 14.11L4.30 14.11ZM9.59 14L9.59 14Q9.37 14 9.37 13.78L9.37 13.78L9.37 4.42L9.37 4.42Q9.37 4.20 9.59 4.20L9.59 4.20L10.77 4.20L10.77 4.20Q10.99 4.20 10.99 4.42L10.99 4.42L10.99 13.78L10.99 13.78Q10.99 14 10.77 14L10.77 14L9.59 14ZM15.81 14.11L15.81 14.11Q14.70 14.11 13.90 13.55L13.90 13.55L13.90 13.55Q13.10 12.99 12.80 12.00L12.80 12.00L12.80 12.00Q12.56 11.31 12.56 10.40L12.56 10.40L12.56 10.40Q12.56 9.51 12.78 8.81L12.78 8.81L12.78 8.81Q13.10 7.83 13.90 7.28L13.90 7.28L13.90 7.28Q14.70 6.73 15.82 6.73L15.82 6.73L15.82 6.73Q16.88 6.73 17.66 7.28L17.66 7.28L17.66 7.28Q18.44 7.83 18.76 8.79L18.76 8.79L18.76 8.79Q19.01 9.46 19.01 10.39L19.01 10.39L19.01 10.39Q19.01 11.27 18.77 11.98L18.77 11.98L18.77 11.98Q18.45 12.98 17.67 13.54L17.67 13.54L17.67 13.54Q16.88 14.11 15.81 14.11L15.81 14.11ZM15.81 12.71L15.81 12.71Q16.32 12.71 16.70 12.42L16.70 12.42L16.70 12.42Q17.07 12.12 17.22 11.59L17.22 11.59L17.22 11.59Q17.37 11.14 17.37 10.42L17.37 10.42L17.37 10.42Q17.37 9.73 17.23 9.24L17.23 9.24L17.23 9.24Q17.08 8.71 16.70 8.42L16.70 8.42L16.70 8.42Q16.31 8.13 15.78 8.13L15.78 8.13L15.78 8.13Q15.25 8.13 14.87 8.42L14.87 8.42L14.87 8.42Q14.49 8.71 14.34 9.24L14.34 9.24L14.34 9.24Q14.20 9.73 14.20 10.42L14.20 10.42L14.20 10.42Q14.20 11.10 14.34 11.59L14.34 11.59L14.34 11.59Q14.49 12.12 14.88 12.42L14.88 12.42L14.88 12.42Q15.26 12.71 15.81 12.71L15.81 12.71ZM26.59 8.69L26.59 8.69Q26.82 9.41 26.82 10.40L26.82 10.40L26.82 10.40Q26.82 11.37 26.57 12.15L26.57 12.15L26.57 12.15Q26.26 13.06 25.56 13.59L25.56 13.59L25.56 13.59Q24.86 14.11 23.88 14.11L23.88 14.11L23.88 14.11Q22.89 14.11 22.29 13.38L22.29 13.38L22.29 13.38Q22.26 13.33 22.22 13.34L22.22 13.34L22.22 13.34Q22.19 13.36 22.19 13.41L22.19 13.41L22.19 13.78L22.19 13.78Q22.19 14 21.97 14L21.97 14L20.79 14L20.79 14Q20.57 14 20.57 13.78L20.57 13.78L20.57 4.42L20.57 4.42Q20.57 4.20 20.79 4.20L20.79 4.20L21.97 4.20L21.97 4.20Q22.19 4.20 22.19 4.42L22.19 4.42L22.19 7.39L22.19 7.39Q22.19 7.45 22.22 7.46L22.22 7.46L22.22 7.46Q22.26 7.46 22.29 7.42L22.29 7.42L22.29 7.42Q22.90 6.73 23.88 6.73L23.88 6.73L23.88 6.73Q24.91 6.73 25.59 7.25L25.59 7.25L25.59 7.25Q26.28 7.77 26.59 8.69L26.59 8.69ZM24.81 12.03L24.81 12.03Q25.14 11.44 25.14 10.43L25.14 10.43L25.14 10.43Q25.14 9.34 24.74 8.72L24.74 8.72L24.74 8.72Q24.35 8.13 23.62 8.13L23.62 8.13L23.62 8.13Q22.95 8.13 22.57 8.75L22.57 8.75L22.57 8.75Q22.22 9.32 22.22 10.42L22.22 10.42L22.22 10.42Q22.22 11.49 22.54 12.04L22.54 12.04L22.54 12.04Q22.93 12.70 23.63 12.70L23.63 12.70L23.63 12.70Q24.44 12.70 24.81 12.03L24.81 12.03ZM31.00 6.73L31.00 6.73Q31.88 6.73 32.56 7.04L32.56 7.04L32.56 7.04Q33.24 7.35 33.60 7.89L33.60 7.89L33.60 7.89Q33.96 8.43 33.96 9.11L33.96 9.11L33.96 13.78L33.96 13.78Q33.96 14 33.74 14L33.74 14L32.56 14L32.56 14Q32.34 14 32.34 13.78L32.34 13.78L32.34 13.43L32.34 13.43Q32.34 13.37 32.31 13.36L32.31 13.36L32.31 13.36Q32.28 13.36 32.24 13.38L32.24 13.38L32.24 13.38Q31.49 14.11 30.23 14.11L30.23 14.11L30.23 14.11Q29.19 14.11 28.52 13.58L28.52 13.58L28.52 13.58Q27.86 13.05 27.86 12.00L27.86 12.00L27.86 12.00Q27.86 10.91 28.62 10.30L28.62 10.30L28.62 10.30Q29.39 9.69 30.77 9.69L30.77 9.69L32.26 9.69L32.26 9.69Q32.34 9.69 32.34 9.60L32.34 9.60L32.34 9.28L32.34 9.28Q32.34 8.74 32.01 8.43L32.01 8.43L32.01 8.43Q31.68 8.13 31.04 8.13L31.04 8.13L31.04 8.13Q30.55 8.13 30.23 8.31L30.23 8.31L30.23 8.31Q29.90 8.48 29.79 8.79L29.79 8.79L29.79 8.79Q29.74 8.99 29.54 8.97L29.54 8.97L28.28 8.82L28.28 8.82Q28.17 8.81 28.11 8.76L28.11 8.76L28.11 8.76Q28.06 8.71 28.07 8.64L28.07 8.64L28.07 8.64Q28.20 7.80 29.00 7.27L29.00 7.27L29.00 7.27Q29.81 6.73 31.00 6.73L31.00 6.73ZM30.67 12.82L30.67 12.82Q31.36 12.82 31.85 12.46L31.85 12.46L31.85 12.46Q32.34 12.10 32.34 11.54L32.34 11.54L32.34 10.89L32.34 10.89Q32.34 10.81 32.26 10.81L32.26 10.81L31.09 10.81L31.09 10.81Q30.35 10.81 29.92 11.09L29.92 11.09L29.92 11.09Q29.48 11.37 29.48 11.89L29.48 11.89L29.48 11.89Q29.48 12.33 29.82 12.58L29.82 12.58L29.82 12.58Q30.16 12.82 30.67 12.82L30.67 12.82ZM35.81 14L35.81 14Q35.59 14 35.59 13.78L35.59 13.78L35.59 4.42L35.59 4.42Q35.59 4.20 35.81 4.20L35.81 4.20L36.99 4.20L36.99 4.20Q37.21 4.20 37.21 4.42L37.21 4.42L37.21 13.78L37.21 13.78Q37.21 14 36.99 14L36.99 14L35.81 14ZM48.57 5.38L48.57 5.38Q48.57 5.60 48.34 5.60L48.34 5.60L43.64 5.60L43.64 5.60Q43.55 5.60 43.55 5.68L43.55 5.68L43.55 8.27L43.55 8.27Q43.55 8.36 43.64 8.36L43.64 8.36L46.77 8.36L46.77 8.36Q47.00 8.36 47.00 8.58L47.00 8.58L47.00 9.53L47.00 9.53Q47.00 9.76 46.77 9.76L46.77 9.76L43.64 9.76L43.64 9.76Q43.55 9.76 43.55 9.84L43.55 9.84L43.55 12.52L43.55 12.52Q43.55 12.60 43.64 12.60L43.64 12.60L48.34 12.60L48.34 12.60Q48.57 12.60 48.57 12.82L48.57 12.82L48.57 13.78L48.57 13.78Q48.57 14 48.34 14L48.34 14L42.15 14L42.15 14Q41.93 14 41.93 13.78L41.93 13.78L41.93 4.42L41.93 4.42Q41.93 4.20 42.15 4.20L42.15 4.20L48.34 4.20L48.34 4.20Q48.57 4.20 48.57 4.42L48.57 4.42L48.57 5.38ZM54.40 4.42L54.40 4.42Q54.40 4.20 54.63 4.20L54.63 4.20L55.80 4.20L55.80 4.20Q56.03 4.20 56.03 4.42L56.03 4.42L56.03 13.78L56.03 13.78Q56.03 14 55.80 14L55.80 14L54.63 14L54.63 14Q54.40 14 54.40 13.78L54.40 13.78L54.40 13.41L54.40 13.41Q54.40 13.36 54.37 13.34L54.37 13.34L54.37 13.34Q54.33 13.33 54.31 13.38L54.31 13.38L54.31 13.38Q53.70 14.11 52.71 14.11L52.71 14.11L52.71 14.11Q51.73 14.11 51.03 13.59L51.03 13.59L51.03 13.59Q50.33 13.06 50.02 12.15L50.02 12.15L50.02 12.15Q49.77 11.37 49.77 10.40L49.77 10.40L49.77 10.40Q49.77 9.41 50.01 8.69L50.01 8.69L50.01 8.69Q50.32 7.77 51.00 7.25L51.00 7.25L51.00 7.25Q51.69 6.73 52.71 6.73L52.71 6.73L52.71 6.73Q53.69 6.73 54.31 7.42L54.31 7.42L54.31 7.42Q54.33 7.46 54.37 7.46L54.37 7.46L54.37 7.46Q54.40 7.45 54.40 7.39L54.40 7.39L54.40 4.42ZM54.05 12.04L54.05 12.04Q54.38 11.49 54.38 10.42L54.38 10.42L54.38 10.42Q54.38 9.32 54.03 8.75L54.03 8.75L54.03 8.75Q53.65 8.13 52.98 8.13L52.98 8.13L52.98 8.13Q52.25 8.13 51.86 8.72L51.86 8.72L51.86 8.72Q51.45 9.34 51.45 10.43L51.45 10.43L51.45 10.43Q51.45 11.44 51.79 12.03L51.79 12.03L51.79 12.03Q52.15 12.70 52.96 12.70L52.96 12.70L52.96 12.70Q53.66 12.70 54.05 12.04L54.05 12.04ZM62.01 7.07L62.01 7.07Q62.01 6.85 62.23 6.85L62.23 6.85L63.39 6.85L63.39 6.85Q63.62 6.85 63.62 7.07L63.62 7.07L63.62 13.78L63.62 13.78Q63.62 14 63.39 14L63.39 14L62.23 14L62.23 14Q62.01 14 62.01 13.78L62.01 13.78L62.01 13.41L62.01 13.41Q62.01 13.36 61.97 13.34L61.97 13.34L61.97 13.34Q61.94 13.33 61.91 13.38L61.91 13.38L61.91 13.38Q61.35 14.10 60.20 14.10L60.20 14.10L60.20 14.10Q59.14 14.10 58.41 13.48L58.41 13.48L58.41 13.48Q57.69 12.87 57.69 11.73L57.69 11.73L57.69 7.07L57.69 7.07Q57.69 6.85 57.92 6.85L57.92 6.85L59.09 6.85L59.09 6.85Q59.32 6.85 59.32 7.07L59.32 7.07L59.32 11.27L59.32 11.27Q59.32 11.93 59.66 12.32L59.66 12.32L59.66 12.32Q60.00 12.71 60.62 12.71L60.62 12.71L60.62 12.71Q61.25 12.71 61.63 12.32L61.63 12.32L61.63 12.32Q62.01 11.93 62.01 11.27L62.01 11.27L62.01 7.07ZM68.33 14.11L68.33 14.11Q67.26 14.11 66.47 13.56L66.47 13.56L66.47 13.56Q65.69 13.01 65.38 12.07L65.38 12.07L65.38 12.07Q65.16 11.44 65.16 10.39L65.16 10.39L65.16 10.39Q65.16 9.38 65.38 8.74L65.38 8.74L65.38 8.74Q65.67 7.81 66.46 7.27L66.46 7.27L66.46 7.27Q67.26 6.73 68.33 6.73L68.33 6.73L68.33 6.73Q69.43 6.73 70.24 7.28L70.24 7.28L70.24 7.28Q71.05 7.83 71.32 8.65L71.32 8.65L71.32 8.65Q71.36 8.78 71.40 9.04L71.40 9.04L71.40 9.10L71.40 9.10Q71.40 9.25 71.22 9.30L71.22 9.30L70.06 9.48L70 9.48L70 9.48Q69.85 9.48 69.80 9.31L69.80 9.31L69.76 9.13L69.76 9.13Q69.66 8.71 69.27 8.42L69.27 8.42L69.27 8.42Q68.88 8.13 68.33 8.13L68.33 8.13L68.33 8.13Q67.80 8.13 67.43 8.41L67.43 8.41L67.43 8.41Q67.06 8.68 66.93 9.16L66.93 9.16L66.93 9.16Q66.79 9.60 66.79 10.40L66.79 10.40L66.79 10.40Q66.79 11.17 66.92 11.65L66.92 11.65L66.92 11.65Q67.06 12.14 67.42 12.43L67.42 12.43L67.42 12.43Q67.79 12.71 68.33 12.71L68.33 12.71L68.33 12.71Q68.87 12.71 69.25 12.44L69.25 12.44L69.25 12.44Q69.64 12.17 69.75 11.72L69.75 11.72L69.76 11.65L69.76 11.65L69.76 11.65Q69.78 11.58 69.85 11.51L69.85 11.51L69.85 11.51Q69.93 11.44 70.03 11.45L70.03 11.45L71.19 11.63L71.19 11.63Q71.37 11.68 71.37 11.83L71.37 11.83L71.37 11.83Q71.37 11.91 71.32 12.17L71.32 12.17L71.32 12.17Q71.05 13.06 70.24 13.59L70.24 13.59L70.24 13.59Q69.43 14.11 68.33 14.11L68.33 14.11ZM75.52 6.73L75.52 6.73Q76.40 6.73 77.08 7.04L77.08 7.04L77.08 7.04Q77.76 7.35 78.12 7.89L78.12 7.89L78.12 7.89Q78.48 8.43 78.48 9.11L78.48 9.11L78.48 13.78L78.48 13.78Q78.48 14 78.26 14L78.26 14L77.08 14L77.08 14Q76.86 14 76.86 13.78L76.86 13.78L76.86 13.43L76.86 13.43Q76.86 13.37 76.83 13.36L76.83 13.36L76.83 13.36Q76.80 13.36 76.76 13.38L76.76 13.38L76.76 13.38Q76.01 14.11 74.75 14.11L74.75 14.11L74.75 14.11Q73.71 14.11 73.04 13.58L73.04 13.58L73.04 13.58Q72.38 13.05 72.38 12.00L72.38 12.00L72.38 12.00Q72.38 10.91 73.14 10.30L73.14 10.30L73.14 10.30Q73.91 9.69 75.29 9.69L75.29 9.69L76.78 9.69L76.78 9.69Q76.86 9.69 76.86 9.60L76.86 9.60L76.86 9.28L76.86 9.28Q76.86 8.74 76.53 8.43L76.53 8.43L76.53 8.43Q76.20 8.13 75.56 8.13L75.56 8.13L75.56 8.13Q75.07 8.13 74.75 8.31L74.75 8.31L74.75 8.31Q74.42 8.48 74.31 8.79L74.31 8.79L74.31 8.79Q74.26 8.99 74.06 8.97L74.06 8.97L72.80 8.82L72.80 8.82Q72.69 8.81 72.63 8.76L72.63 8.76L72.63 8.76Q72.58 8.71 72.59 8.64L72.59 8.64L72.59 8.64Q72.72 7.80 73.52 7.27L73.52 7.27L73.52 7.27Q74.33 6.73 75.52 6.73L75.52 6.73ZM75.19 12.82L75.19 12.82Q75.88 12.82 76.37 12.46L76.37 12.46L76.37 12.46Q76.86 12.10 76.86 11.54L76.86 11.54L76.86 10.89L76.86 10.89Q76.86 10.81 76.78 10.81L76.78 10.81L75.61 10.81L75.61 10.81Q74.87 10.81 74.44 11.09L74.44 11.09L74.44 11.09Q74.00 11.37 74.00 11.89L74.00 11.89L74.00 11.89Q74.00 12.33 74.34 12.58L74.34 12.58L74.34 12.58Q74.68 12.82 75.19 12.82L75.19 12.82ZM83.89 7.94L83.89 7.94Q83.89 8.16 83.66 8.16L83.66 8.16L82.31 8.16L82.31 8.16Q82.22 8.16 82.22 8.25L82.22 8.25L82.22 11.55L82.22 11.55Q82.22 12.10 82.45 12.33L82.45 12.33L82.45 12.33Q82.68 12.57 83.19 12.57L83.19 12.57L83.55 12.57L83.55 12.57Q83.78 12.57 83.78 12.80L83.78 12.80L83.78 13.73L83.78 13.73Q83.78 13.96 83.55 13.97L83.55 13.97L82.88 13.99L82.88 13.99Q81.77 13.99 81.23 13.60L81.23 13.60L81.23 13.60Q80.68 13.22 80.67 12.17L80.67 12.17L80.67 8.25L80.67 8.25Q80.67 8.16 80.58 8.16L80.58 8.16L79.86 8.16L79.86 8.16Q79.63 8.16 79.63 7.94L79.63 7.94L79.63 7.07L79.63 7.07Q79.63 6.85 79.86 6.85L79.86 6.85L80.58 6.85L80.58 6.85Q80.67 6.85 80.67 6.76L80.67 6.76L80.67 5.19L80.67 5.19Q80.67 4.97 80.89 4.97L80.89 4.97L82.00 4.97L82.00 4.97Q82.22 4.97 82.22 5.19L82.22 5.19L82.22 6.76L82.22 6.76Q82.22 6.85 82.31 6.85L82.31 6.85L83.66 6.85L83.66 6.85Q83.89 6.85 83.89 7.07L83.89 7.07L83.89 7.94ZM86.25 5.95L86.25 5.95Q85.79 5.95 85.50 5.66L85.50 5.66L85.50 5.66Q85.20 5.38 85.20 4.93L85.20 4.93L85.20 4.93Q85.20 4.48 85.50 4.20L85.50 4.20L85.50 4.20Q85.79 3.92 86.25 3.92L86.25 3.92L86.25 3.92Q86.72 3.92 87.00 4.20L87.00 4.20L87.00 4.20Q87.29 4.48 87.29 4.93L87.29 4.93L87.29 4.93Q87.29 5.38 87.00 5.66L87.00 5.66L87.00 5.66Q86.72 5.95 86.25 5.95L86.25 5.95ZM85.67 14L85.67 14Q85.44 14 85.44 13.78L85.44 13.78L85.44 7.07L85.44 7.07Q85.44 6.85 85.67 6.85L85.67 6.85L86.84 6.85L86.84 6.85Q87.07 6.85 87.07 7.07L87.07 7.07L87.07 13.78L87.07 13.78Q87.07 14 86.84 14L86.84 14L85.67 14ZM91.95 14.11L91.95 14.11Q90.85 14.11 90.05 13.55L90.05 13.55L90.05 13.55Q89.25 12.99 88.94 12.00L88.94 12.00L88.94 12.00Q88.70 11.31 88.70 10.40L88.70 10.40L88.70 10.40Q88.70 9.51 88.93 8.81L88.93 8.81L88.93 8.81Q89.25 7.83 90.05 7.28L90.05 7.28L90.05 7.28Q90.85 6.73 91.97 6.73L91.97 6.73L91.97 6.73Q93.03 6.73 93.81 7.28L93.81 7.28L93.81 7.28Q94.58 7.83 94.91 8.79L94.91 8.79L94.91 8.79Q95.16 9.46 95.16 10.39L95.16 10.39L95.16 10.39Q95.16 11.27 94.92 11.98L94.92 11.98L94.92 11.98Q94.60 12.98 93.81 13.54L93.81 13.54L93.81 13.54Q93.03 14.11 91.95 14.11L91.95 14.11ZM91.95 12.71L91.95 12.71Q92.47 12.71 92.84 12.42L92.84 12.42L92.84 12.42Q93.21 12.12 93.37 11.59L93.37 11.59L93.37 11.59Q93.52 11.14 93.52 10.42L93.52 10.42L93.52 10.42Q93.52 9.73 93.38 9.24L93.38 9.24L93.38 9.24Q93.23 8.71 92.84 8.42L92.84 8.42L92.84 8.42Q92.46 8.13 91.92 8.13L91.92 8.13L91.92 8.13Q91.39 8.13 91.01 8.42L91.01 8.42L91.01 8.42Q90.64 8.71 90.48 9.24L90.48 9.24L90.48 9.24Q90.34 9.73 90.34 10.42L90.34 10.42L90.34 10.42Q90.34 11.10 90.48 11.59L90.48 11.59L90.48 11.59Q90.64 12.12 91.02 12.42L91.02 12.42L91.02 12.42Q91.41 12.71 91.95 12.71L91.95 12.71ZM100.13 6.73L100.13 6.73Q101.28 6.73 101.96 7.41L101.96 7.41L101.96 7.41Q102.63 8.08 102.63 9.24L102.63 9.24L102.63 13.78L102.63 13.78Q102.63 14 102.41 14L102.41 14L101.23 14L101.23 14Q101.01 14 101.01 13.78L101.01 13.78L101.01 9.58L101.01 9.58Q101.01 8.93 100.64 8.53L100.64 8.53L100.64 8.53Q100.27 8.13 99.67 8.13L99.67 8.13L99.67 8.13Q99.06 8.13 98.69 8.53L98.69 8.53L98.69 8.53Q98.32 8.92 98.32 9.56L98.32 9.56L98.32 13.78L98.32 13.78Q98.32 14 98.10 14L98.10 14L96.92 14L96.92 14Q96.70 14 96.70 13.78L96.70 13.78L96.70 7.07L96.70 7.07Q96.70 6.85 96.92 6.85L96.92 6.85L98.10 6.85L98.10 6.85Q98.32 6.85 98.32 7.07L98.32 7.07L98.32 7.45L98.32 7.45Q98.32 7.50 98.35 7.52L98.35 7.52L98.35 7.52Q98.38 7.53 98.41 7.49L98.41 7.49L98.41 7.49Q98.99 6.73 100.13 6.73L100.13 6.73Z"></path></g><!----><!----><g data-v-423bf9ae="" id="1d0980c7-621b-4f0a-b1c2-c0d809239a85" fill="#C5C40A" transform="matrix(5.763688845290021,0,0,5.763688845290021,40.65659769201227,113.97982207858686)"><path d="M0.83 10.82L0.83 10.82L0.83 10.82Q0.83 10.53 1.02 10.53L1.02 10.53L1.02 10.53Q1.20 10.53 1.25 10.67L1.25 10.67L1.25 10.67Q1.39 11.00 1.51 11.25L1.51 11.25L1.51 11.25Q1.62 11.49 1.89 11.85L1.89 11.85L1.89 11.85Q2.16 12.21 2.46 12.44L2.46 12.44L2.46 12.44Q2.77 12.67 3.25 12.84L3.25 12.84L3.25 12.84Q3.74 13.01 4.31 13.01L4.31 13.01L4.31 13.01Q5.36 13.01 6.00 12.45L6.00 12.45L6.00 12.45Q6.64 11.90 6.64 11.00L6.64 11.00L6.64 11.00Q6.64 10.35 6.20 9.90L6.20 9.90L6.20 9.90Q5.77 9.46 5.21 9.27L5.21 9.27L5.21 9.27Q4.65 9.09 3.79 8.77L3.79 8.77L3.79 8.77Q2.93 8.46 2.38 8.13L2.38 8.13L2.38 8.13Q1.11 7.38 1.11 6.08L1.11 6.08L1.11 6.08Q1.11 4.83 2.01 4.08L2.01 4.08L2.01 4.08Q2.91 3.33 4.35 3.33L4.35 3.33L4.35 3.33Q4.89 3.33 5.62 3.56L5.62 3.56L5.62 3.56Q6.36 3.79 6.37 3.79L6.37 3.79L6.37 3.79Q6.41 3.79 6.52 3.74L6.52 3.74L6.52 3.74Q6.64 3.68 6.69 3.68L6.69 3.68L6.69 3.68Q6.87 3.68 6.90 3.79L6.90 3.79L6.90 3.79Q7.20 5.49 7.20 5.70L7.20 5.70L7.20 5.70Q7.20 6.09 7 6.09L7 6.09L7 6.09Q6.87 6.09 6.80 5.89L6.80 5.89L6.80 5.89Q6.64 5.49 6.48 5.24L6.48 5.24L6.48 5.24Q6.31 4.98 6.24 4.91L6.24 4.91L6.24 4.91Q6.17 4.84 5.88 4.58L5.88 4.58L5.88 4.58Q5.12 3.91 4.05 3.91L4.05 3.91L4.05 3.91Q3.18 3.91 2.59 4.33L2.59 4.33L2.59 4.33Q2.00 4.75 2.00 5.46L2.00 5.46L2.00 5.46Q2.00 6.09 2.35 6.50L2.35 6.50L2.35 6.50Q2.69 6.90 3.26 7.13L3.26 7.13L3.26 7.13Q3.84 7.35 4.47 7.55L4.47 7.55L4.47 7.55Q5.10 7.74 5.80 8.09L5.80 8.09L5.80 8.09Q6.51 8.44 6.97 8.93L6.97 8.93L6.97 8.93Q7.53 9.53 7.53 10.43L7.53 10.43L7.53 10.43Q7.53 11.90 6.59 12.76L6.59 12.76L6.59 12.76Q5.66 13.62 4.27 13.62L4.27 13.62L4.27 13.62Q3.30 13.62 2.72 13.52L2.72 13.52L2.72 13.52Q2.13 13.41 1.51 13.09L1.51 13.09L1.51 13.09Q1.33 12.98 1.08 12.00L1.08 12.00L1.08 12.00Q0.83 11.02 0.83 10.82ZM15.62 5.32L15.62 5.32L15.62 5.32Q15.62 4.76 15.76 3.88L15.76 3.88L15.76 3.88Q15.76 3.85 15.77 3.78L15.77 3.78L15.77 3.78Q15.78 3.71 15.79 3.69L15.79 3.69L15.79 3.69Q15.79 3.67 15.80 3.62L15.80 3.62L15.80 3.62Q15.81 3.57 15.82 3.55L15.82 3.55L15.82 3.55Q15.83 3.53 15.85 3.49L15.85 3.49L15.85 3.49Q15.88 3.46 15.90 3.44L15.90 3.44L15.90 3.44Q15.93 3.43 15.97 3.42L15.97 3.42L15.97 3.42Q16.02 3.40 16.07 3.39L16.07 3.39L16.07 3.39Q16.13 3.39 16.20 3.39L16.20 3.39L16.20 3.39Q16.42 3.39 17.38 3.44L17.38 3.44L17.38 3.44Q18.34 3.50 20.15 3.50L20.15 3.50L20.15 3.50Q23.23 3.50 24.46 3.43L24.46 3.43L24.46 3.43Q24.47 3.43 24.51 3.42L24.51 3.42L24.51 3.42Q24.54 3.42 24.56 3.42L24.56 3.42L24.56 3.42Q24.71 3.42 24.77 3.50L24.77 3.50L24.77 3.50Q24.82 3.58 24.82 3.65L24.82 3.65L24.82 3.65Q24.82 3.75 24.86 4.24L24.86 4.24L24.86 4.24Q24.91 4.73 24.91 4.79L24.91 4.79L24.91 4.79Q24.91 5.14 24.86 5.23L24.86 5.23L24.86 5.23Q24.82 5.32 24.68 5.32L24.68 5.32L24.68 5.32Q24.57 5.32 24.53 5.15L24.53 5.15L24.53 5.15Q24.42 4.75 24.33 4.60L24.33 4.60L24.33 4.60Q24.25 4.45 23.97 4.34L23.97 4.34L23.97 4.34Q23.69 4.23 23.11 4.23L23.11 4.23L21.29 4.23L21.29 4.23Q20.96 4.23 20.88 4.36L20.88 4.36L20.88 4.36Q20.80 4.49 20.80 5.12L20.80 5.12L20.80 5.81L20.80 5.81Q20.80 7.69 20.78 9.11L20.78 9.11L20.78 9.11Q20.76 10.54 20.76 10.93L20.76 10.93L20.76 10.93Q20.76 11.13 20.75 11.43L20.75 11.43L20.75 11.43Q20.75 11.73 20.75 11.84L20.75 11.84L20.75 11.84Q20.75 12.45 20.94 12.64L20.94 12.64L20.94 12.64Q21.13 12.81 21.35 12.90L21.35 12.90L21.35 12.90Q21.57 12.99 21.73 13.01L21.73 13.01L21.73 13.01Q21.90 13.02 22.01 13.08L22.01 13.08L22.01 13.08Q22.12 13.13 22.12 13.26L22.12 13.26L22.12 13.26Q22.12 13.41 22.05 13.45L22.05 13.45L22.05 13.45Q21.98 13.50 21.78 13.50L21.78 13.50L21.78 13.50Q21.62 13.50 21.04 13.44L21.04 13.44L21.04 13.44Q20.47 13.38 20.23 13.38L20.23 13.38L20.23 13.38Q20.06 13.38 19.55 13.43L19.55 13.43L19.55 13.43Q19.04 13.48 18.80 13.48L18.80 13.48L18.80 13.48Q18.28 13.48 18.28 13.26L18.28 13.26L18.28 13.26Q18.28 13.12 18.37 13.07L18.37 13.07L18.37 13.07Q18.45 13.02 18.70 12.98L18.70 12.98L18.70 12.98Q18.94 12.95 19.01 12.94L19.01 12.94L19.01 12.94Q19.49 12.82 19.54 12.38L19.54 12.38L19.54 12.38Q19.68 11.14 19.68 7.08L19.68 7.08L19.67 4.58L19.67 4.58Q19.67 4.31 19.52 4.25L19.52 4.25L19.52 4.25Q19.36 4.19 18.61 4.19L18.61 4.19L18.61 4.19Q17.63 4.19 17.13 4.24L17.13 4.24L17.13 4.24Q16.63 4.30 16.55 4.35L16.55 4.35L16.55 4.35Q16.46 4.40 16.35 4.54L16.35 4.54L16.35 4.54Q16.23 4.70 16.15 4.91L16.15 4.91L16.15 4.91Q16.07 5.11 16.05 5.24L16.05 5.24L16.05 5.24Q16.03 5.38 15.97 5.47L15.97 5.47L15.97 5.47Q15.90 5.56 15.78 5.56L15.78 5.56L15.78 5.56Q15.62 5.56 15.62 5.32ZM32.47 3.68L32.47 3.68L32.47 3.68Q32.47 3.61 32.48 3.58L32.48 3.58L32.48 3.58Q32.49 3.56 32.56 3.53L32.56 3.53L32.56 3.53Q32.63 3.50 32.79 3.50L32.79 3.50L32.79 3.50Q32.94 3.50 33.43 3.53L33.43 3.53L33.43 3.53Q33.92 3.56 34.37 3.56L34.37 3.56L34.37 3.56Q34.65 3.56 34.88 3.54L34.88 3.54L34.88 3.54Q35.11 3.53 35.69 3.53L35.69 3.53L35.69 3.53Q35.98 3.53 35.98 3.72L35.98 3.72L35.98 3.72Q35.98 3.85 35.88 3.88L35.88 3.88L35.88 3.88Q35.78 3.91 35.64 3.92L35.64 3.92L35.64 3.92Q35.49 3.93 35.34 4.02L35.34 4.02L35.34 4.02Q35.20 4.10 35.10 4.43L35.10 4.43L35.10 4.43Q35 4.76 35 5.32L35 5.32L35 5.71L35 5.71Q35 6.37 34.99 7.37L34.99 7.37L34.99 7.37Q34.99 8.37 34.99 8.74L34.99 8.74L34.99 8.74Q34.99 9.17 34.99 9.39L34.99 9.39L34.99 9.39Q35 9.62 35.03 10.04L35.03 10.04L35.03 10.04Q35.06 10.47 35.10 10.72L35.10 10.72L35.10 10.72Q35.15 10.96 35.27 11.32L35.27 11.32L35.27 11.32Q35.38 11.68 35.54 11.89L35.54 11.89L35.54 11.89Q35.70 12.10 35.95 12.35L35.95 12.35L35.95 12.35Q36.19 12.60 36.51 12.73L36.51 12.73L36.51 12.73Q36.83 12.87 37.27 12.96L37.27 12.96L37.27 12.96Q37.70 13.05 38.23 13.05L38.23 13.05L38.23 13.05Q38.68 13.05 38.93 13.03L38.93 13.03L38.93 13.03Q39.19 13.02 39.63 12.94L39.63 12.94L39.63 12.94Q40.07 12.87 40.33 12.72L40.33 12.72L40.33 12.72Q40.59 12.57 40.91 12.27L40.91 12.27L40.91 12.27Q41.24 11.97 41.43 11.54L41.43 11.54L41.43 11.54Q41.61 11.10 41.73 10.43L41.73 10.43L41.73 10.43Q41.86 9.76 41.86 8.90L41.86 8.90L41.86 8.90Q41.86 7.49 41.85 6.75L41.85 6.75L41.85 6.75Q41.85 6.01 41.85 5.94L41.85 5.94L41.85 5.94Q41.85 5.45 41.83 5.17L41.83 5.17L41.83 5.17Q41.80 4.89 41.69 4.55L41.69 4.55L41.69 4.55Q41.57 4.21 41.34 4.06L41.34 4.06L41.34 4.06Q41.20 3.96 40.98 3.93L40.98 3.93L40.98 3.93Q40.75 3.89 40.61 3.87L40.61 3.87L40.61 3.87Q40.47 3.85 40.47 3.75L40.47 3.75L40.47 3.75Q40.47 3.53 40.75 3.53L40.75 3.53L40.75 3.53Q40.84 3.53 41.30 3.54L41.30 3.54L41.30 3.54Q41.76 3.56 41.83 3.56L41.83 3.56L41.83 3.56Q42.17 3.56 42.55 3.54L42.55 3.54L42.55 3.54Q42.92 3.51 43.02 3.51L43.02 3.51L43.02 3.51Q43.32 3.51 43.32 3.70L43.32 3.70L43.32 3.70Q43.32 3.81 43.02 3.98L43.02 3.98L43.02 3.98Q42.71 4.16 42.64 4.30L42.64 4.30L42.64 4.30Q42.49 4.59 42.49 5.22L42.49 5.22L42.49 5.22Q42.49 5.32 42.50 5.62L42.50 5.62L42.50 5.62Q42.50 5.92 42.50 6.16L42.50 6.16L42.50 6.16Q42.50 8.85 42.28 10.28L42.28 10.28L42.28 10.28Q42.06 11.70 41.60 12.36L41.60 12.36L41.60 12.36Q41.15 13.01 40.24 13.40L40.24 13.40L40.24 13.40Q39.49 13.71 38.23 13.71L38.23 13.71L38.23 13.71Q35.90 13.71 34.92 12.81L34.92 12.81L34.92 12.81Q34.15 12.10 33.96 11.09L33.96 11.09L33.96 11.09Q33.78 10.09 33.78 7.64L33.78 7.64L33.78 7.41L33.78 7.41Q33.78 6.86 33.80 6.20L33.80 6.20L33.80 6.20Q33.81 5.54 33.81 5.39L33.81 5.39L33.81 5.39Q33.81 4.62 33.63 4.33L33.63 4.33L33.63 4.33Q33.45 4.05 32.77 3.95L32.77 3.95L32.77 3.95Q32.47 3.91 32.47 3.68ZM50.88 3.64L50.88 3.64L50.88 3.64Q50.88 3.51 51.00 3.49L51.00 3.49L51.00 3.49Q51.11 3.47 51.59 3.47L51.59 3.47L52.81 3.47L52.81 3.47Q53.16 3.47 54.10 3.44L54.10 3.44L54.10 3.44Q55.03 3.42 55.54 3.42L55.54 3.42L55.54 3.42Q56.50 3.42 57.47 3.71L57.47 3.71L57.47 3.71Q58.44 4.00 59.25 4.56L59.25 4.56L59.25 4.56Q60.06 5.11 60.56 6.00L60.56 6.00L60.56 6.00Q61.07 6.89 61.07 7.98L61.07 7.98L61.07 7.98Q61.07 8.96 60.94 9.68L60.94 9.68L60.94 9.68Q60.80 10.40 60.49 10.93L60.49 10.93L60.49 10.93Q60.19 11.45 59.88 11.78L59.88 11.78L59.88 11.78Q59.57 12.11 59.04 12.56L59.04 12.56L59.04 12.56Q58.62 12.89 57.82 13.19L57.82 13.19L57.82 13.19Q57.02 13.48 56.18 13.48L56.18 13.48L56.18 13.48Q56.10 13.48 54.75 13.45L54.75 13.45L54.75 13.45Q53.41 13.41 52.82 13.41L52.82 13.41L52.82 13.41Q52.33 13.41 51.91 13.45L51.91 13.45L51.91 13.45Q51.49 13.48 51.42 13.48L51.42 13.48L51.42 13.48Q51.09 13.48 51.09 13.30L51.09 13.30L51.09 13.30Q51.09 13.19 51.14 13.14L51.14 13.14L51.14 13.14Q51.18 13.09 51.35 13.05L51.35 13.05L51.35 13.05Q51.51 13.01 51.58 12.98L51.58 12.98L51.58 12.98Q51.80 12.88 51.99 12.61L51.99 12.61L51.99 12.61Q52.18 12.33 52.18 12.07L52.18 12.07L52.18 12.07Q52.18 11.28 52.19 10.07L52.19 10.07L52.19 10.07Q52.19 8.85 52.19 8.27L52.19 8.27L52.19 8.27Q52.19 7.77 52.19 6.70L52.19 6.70L52.19 6.70Q52.18 5.63 52.18 4.72L52.18 4.72L52.18 4.72Q52.18 4.48 51.95 4.23L51.95 4.23L51.95 4.23Q51.72 3.99 51.44 3.98L51.44 3.98L51.44 3.98Q51.24 3.96 51.15 3.95L51.15 3.95L51.15 3.95Q51.06 3.93 50.97 3.86L50.97 3.86L50.97 3.86Q50.88 3.78 50.88 3.64ZM53.35 11.47L53.35 11.47L53.35 11.47Q53.35 11.73 53.36 11.90L53.36 11.90L53.36 11.90Q53.37 12.07 53.42 12.21L53.42 12.21L53.42 12.21Q53.47 12.35 53.49 12.40L53.49 12.40L53.49 12.40Q53.52 12.46 53.66 12.53L53.66 12.53L53.66 12.53Q53.80 12.60 53.88 12.62L53.88 12.62L53.88 12.62Q53.96 12.64 54.21 12.71L54.21 12.71L54.21 12.71Q54.46 12.78 54.63 12.82L54.63 12.82L54.63 12.82Q55.12 12.96 55.65 12.96L55.65 12.96L55.93 12.96L55.93 12.96Q56.88 12.96 57.55 12.69L57.55 12.69L57.55 12.69Q58.23 12.42 58.84 11.83L58.84 11.83L58.84 11.83Q59.88 10.84 59.88 8.61L59.88 8.61L59.88 8.61Q59.88 7.49 59.44 6.58L59.44 6.58L59.44 6.58Q59.00 5.67 58.28 5.13L58.28 5.13L58.28 5.13Q57.57 4.59 56.74 4.30L56.74 4.30L56.74 4.30Q55.92 4.02 55.08 4.02L55.08 4.02L55.08 4.02Q54.70 4.02 54.52 4.02L54.52 4.02L54.52 4.02Q54.35 4.02 54.12 4.05L54.12 4.05L54.12 4.05Q53.89 4.09 53.81 4.11L53.81 4.11L53.81 4.11Q53.73 4.13 53.62 4.25L53.62 4.25L53.62 4.25Q53.51 4.37 53.49 4.45L53.49 4.45L53.49 4.45Q53.47 4.54 53.43 4.78L53.43 4.78L53.43 4.78Q53.40 5.03 53.40 5.21L53.40 5.21L53.40 5.21Q53.40 5.39 53.40 5.80L53.40 5.80L53.40 5.80Q53.40 6.10 53.38 7.24L53.38 7.24L53.38 7.24Q53.37 8.39 53.37 8.48L53.37 8.48L53.37 8.48Q53.37 9.32 53.36 10.30L53.36 10.30L53.36 10.30Q53.35 11.28 53.35 11.47ZM68.56 3.81L68.56 3.81L68.56 3.81Q68.56 3.65 68.72 3.61L68.72 3.61L68.72 3.61Q68.88 3.57 69.43 3.57L69.43 3.57L69.43 3.57Q69.51 3.57 69.81 3.58L69.81 3.58L69.81 3.58Q70.11 3.60 70.24 3.60L70.24 3.60L70.24 3.60Q70.39 3.60 70.81 3.59L70.81 3.59L70.81 3.59Q71.22 3.58 71.43 3.58L71.43 3.58L71.43 3.58Q72.13 3.58 72.13 3.75L72.13 3.75L72.13 3.75Q72.13 3.91 71.83 4.01L71.83 4.01L71.83 4.01Q71.54 4.12 71.54 4.24L71.54 4.24L71.54 4.24Q71.54 4.38 71.63 4.61L71.63 4.61L71.63 4.61Q71.72 4.83 71.81 4.97L71.81 4.97L71.81 4.97Q71.90 5.11 72.09 5.38L72.09 5.38L72.09 5.38Q72.27 5.64 72.30 5.70L72.30 5.70L72.30 5.70Q72.77 6.45 73.28 7.14L73.28 7.14L73.28 7.14Q73.79 7.83 73.86 7.83L73.86 7.83L73.86 7.83Q73.95 7.83 74.07 7.66L74.07 7.66L74.07 7.66Q74.20 7.50 74.42 7.13L74.42 7.13L74.42 7.13Q74.65 6.75 74.80 6.52L74.80 6.52L74.80 6.52Q74.84 6.45 75.01 6.22L75.01 6.22L75.01 6.22Q75.17 5.98 75.23 5.88L75.23 5.88L75.23 5.88Q75.29 5.78 75.42 5.58L75.42 5.58L75.42 5.58Q75.54 5.38 75.60 5.27L75.60 5.27L75.60 5.27Q75.66 5.17 75.73 5.02L75.73 5.02L75.73 5.02Q75.81 4.87 75.84 4.77L75.84 4.77L75.84 4.77Q75.87 4.68 75.87 4.59L75.87 4.59L75.87 4.59Q75.87 4.14 75.39 4.03L75.39 4.03L75.39 4.03Q75.33 4.02 75.23 4.00L75.23 4.00L75.23 4.00Q75.12 3.99 75.08 3.98L75.08 3.98L75.08 3.98Q75.03 3.96 74.96 3.93L74.96 3.93L74.96 3.93Q74.89 3.91 74.86 3.86L74.86 3.86L74.86 3.86Q74.83 3.81 74.83 3.74L74.83 3.74L74.83 3.74Q74.83 3.57 75.22 3.57L75.22 3.57L75.22 3.57Q75.29 3.57 75.48 3.58L75.48 3.58L75.48 3.58Q75.67 3.58 75.80 3.58L75.80 3.58L75.80 3.58Q76.12 3.58 76.57 3.59L76.57 3.59L76.57 3.59Q77.03 3.60 77.28 3.60L77.28 3.60L77.28 3.60Q77.97 3.60 77.97 3.81L77.97 3.81L77.97 3.81Q77.97 3.86 77.88 3.91L77.88 3.91L77.88 3.91Q77.80 3.95 77.64 4.02L77.64 4.02L77.64 4.02Q77.49 4.09 77.36 4.19L77.36 4.19L77.36 4.19Q76.79 4.63 75.68 6.31L75.68 6.31L75.68 6.31Q74.56 7.99 74.41 8.19L74.41 8.19L74.41 8.19Q74.19 8.47 74.13 8.81L74.13 8.81L74.13 8.81Q74.07 9.14 74.07 9.95L74.07 9.95L74.07 9.95Q74.07 10.14 74.08 10.73L74.08 10.73L74.08 10.73Q74.09 11.33 74.09 11.58L74.09 11.58L74.09 11.91L74.09 11.91Q74.09 12.38 74.25 12.64L74.25 12.64L74.25 12.64Q74.41 12.91 74.55 12.96L74.55 12.96L74.55 12.96Q74.69 13.01 74.83 13.01L74.83 13.01L74.83 13.01Q74.86 13.01 74.97 13.01L74.97 13.01L74.97 13.01Q75.08 13.02 75.11 13.02L75.11 13.02L75.11 13.02Q75.21 13.02 75.26 13.08L75.26 13.08L75.26 13.08Q75.32 13.15 75.32 13.22L75.32 13.22L75.32 13.22Q75.32 13.36 75.25 13.40L75.25 13.40L75.25 13.40Q75.18 13.44 74.98 13.44L74.98 13.44L74.98 13.44Q74.91 13.44 74.38 13.43L74.38 13.43L74.38 13.43Q73.84 13.43 73.58 13.43L73.58 13.43L73.58 13.43Q73.09 13.43 72.69 13.45L72.69 13.45L72.69 13.45Q72.28 13.48 72.04 13.48L72.04 13.48L72.04 13.48Q71.65 13.48 71.65 13.33L71.65 13.33L71.65 13.33Q71.65 13.20 71.73 13.15L71.73 13.15L71.73 13.15Q71.81 13.10 71.99 13.09L71.99 13.09L71.99 13.09Q72.17 13.08 72.25 13.05L72.25 13.05L72.25 13.05Q72.84 12.87 72.84 12.19L72.84 12.19L72.84 12.19Q72.84 12.11 72.85 11.92L72.85 11.92L72.85 11.92Q72.86 11.73 72.86 11.12L72.86 11.12L72.86 11.12Q72.87 10.50 72.87 9.35L72.87 9.35L72.87 9.35Q72.87 9.13 72.84 8.97L72.84 8.97L72.84 8.97Q72.80 8.81 72.75 8.65L72.75 8.65L72.75 8.65Q72.70 8.50 72.51 8.20L72.51 8.20L72.51 8.20Q72.32 7.91 72.14 7.64L72.14 7.64L72.14 7.64Q71.96 7.36 71.52 6.72L71.52 6.72L71.52 6.72Q71.08 6.08 70.67 5.46L70.67 5.46L70.67 5.46Q70.24 4.80 69.89 4.46L69.89 4.46L69.89 4.46Q69.54 4.12 69.35 4.05L69.35 4.05L69.35 4.05Q69.16 3.99 68.91 3.99L68.91 3.99L68.91 3.99Q68.56 3.99 68.56 3.81ZM95.51 13.33L95.51 13.33L95.51 13.33Q95.51 13.13 95.72 13.06L95.72 13.06L95.72 13.06Q96.17 12.89 96.50 12.31L96.50 12.31L96.50 12.31Q96.84 11.73 98.17 8.83L98.17 8.83L98.17 8.83Q99.54 5.87 100.59 3.63L100.59 3.63L100.59 3.63Q100.69 3.42 100.77 3.36L100.77 3.36L100.77 3.36Q100.84 3.30 101.01 3.30L101.01 3.30L101.01 3.30Q101.14 3.30 101.18 3.36L101.18 3.36L101.18 3.36Q101.22 3.42 101.36 3.82L101.36 3.82L101.36 3.82Q101.44 4.06 101.51 4.23L101.51 4.23L101.51 4.23Q101.57 4.40 101.71 4.77L101.71 4.77L101.71 4.77Q101.85 5.15 102.02 5.56L102.02 5.56L102.02 5.56Q102.47 6.66 103.57 9.22L103.57 9.22L103.57 9.22Q104.66 11.77 104.76 11.98L104.76 11.98L104.76 11.98Q105.00 12.46 105.29 12.71L105.29 12.71L105.29 12.71Q105.59 12.95 105.81 12.97L105.81 12.97L105.81 12.97Q106.02 12.99 106.17 13.04L106.17 13.04L106.17 13.04Q106.32 13.09 106.32 13.26L106.32 13.26L106.32 13.26Q106.32 13.47 105.94 13.47L105.94 13.47L105.94 13.47Q105.78 13.47 105.34 13.43L105.34 13.43L105.34 13.43Q104.89 13.38 104.68 13.38L104.68 13.38L104.68 13.38Q104.41 13.38 103.99 13.41L103.99 13.41L103.99 13.41Q103.57 13.44 103.38 13.44L103.38 13.44L103.38 13.44Q102.94 13.44 102.82 13.40L102.82 13.40L102.82 13.40Q102.70 13.37 102.70 13.24L102.70 13.24L102.70 13.24Q102.70 13.15 102.82 13.08L102.82 13.08L102.82 13.08Q102.93 13.02 103.05 13.00L103.05 13.00L103.05 13.00Q103.18 12.98 103.29 12.87L103.29 12.87L103.29 12.87Q103.40 12.77 103.40 12.59L103.40 12.59L103.40 12.59Q103.40 12.28 103.05 11.33L103.05 11.33L103.05 11.33Q102.70 10.37 102.47 9.93L102.47 9.93L102.47 9.93Q102.34 9.69 101.89 9.69L101.89 9.69L101.89 9.69Q101.82 9.69 101.28 9.70L101.28 9.70L101.28 9.70Q100.73 9.72 100.20 9.72L100.20 9.72L99.46 9.72L99.46 9.72Q98.83 9.72 98.67 9.79L98.67 9.79L98.67 9.79Q98.50 9.86 98.38 10.12L98.38 10.12L98.38 10.12Q98.29 10.30 98.10 10.70L98.10 10.70L98.10 10.70Q97.90 11.10 97.83 11.26L97.83 11.26L97.83 11.26Q97.76 11.41 97.66 11.65L97.66 11.65L97.66 11.65Q97.55 11.90 97.52 12.05L97.52 12.05L97.52 12.05Q97.48 12.19 97.48 12.31L97.48 12.31L97.48 12.31Q97.48 12.63 97.64 12.80L97.64 12.80L97.64 12.80Q97.80 12.96 98.00 12.98L98.00 12.98L98.00 12.98Q98.20 13.01 98.36 13.06L98.36 13.06L98.36 13.06Q98.52 13.12 98.52 13.26L98.52 13.26L98.52 13.26Q98.52 13.36 98.48 13.40L98.48 13.40L98.48 13.40Q98.43 13.45 98.28 13.45L98.28 13.45L98.28 13.45Q98.20 13.45 97.80 13.45L97.80 13.45L97.80 13.45Q97.40 13.44 97.12 13.44L97.12 13.44L97.12 13.44Q96.81 13.44 96.43 13.47L96.43 13.47L96.43 13.47Q96.04 13.50 95.91 13.50L95.91 13.50L95.91 13.50Q95.51 13.50 95.51 13.33ZM99.02 8.71L99.02 8.71L99.02 8.71Q99.02 8.89 99.15 8.93L99.15 8.93L99.15 8.93Q99.27 8.97 99.74 8.97L99.74 8.97L100.17 8.97L101.50 8.96L101.50 8.96Q102.05 8.96 102.05 8.74L102.05 8.74L102.05 8.74Q102.05 8.55 101.36 7.01L101.36 7.01L101.36 7.01Q100.67 5.46 100.49 5.46L100.49 5.46L100.49 5.46Q100.37 5.46 99.69 7.01L99.69 7.01L99.69 7.01Q99.02 8.55 99.02 8.71ZM113.88 3.72L113.88 3.72L113.88 3.72Q113.88 3.51 114.00 3.51L114.00 3.51L114.00 3.51Q114.04 3.51 114.18 3.52L114.18 3.52L114.18 3.52Q114.32 3.53 114.56 3.53L114.56 3.53L114.56 3.53Q114.84 3.53 115.67 3.52L115.67 3.52L115.67 3.52Q116.51 3.51 116.61 3.51L116.61 3.51L116.61 3.51Q116.93 3.51 117.42 3.49L117.42 3.49L117.42 3.49Q117.91 3.47 118.15 3.47L118.15 3.47L118.15 3.47Q119.42 3.47 120.27 4.08L120.27 4.08L120.27 4.08Q121.13 4.69 121.13 5.81L121.13 5.81L121.13 5.81Q121.13 6.22 120.98 6.57L120.98 6.57L120.98 6.57Q120.83 6.93 120.63 7.15L120.63 7.15L120.63 7.15Q120.43 7.38 120.23 7.54L120.23 7.54L120.23 7.54Q120.02 7.70 119.88 7.79L119.88 7.79L119.88 7.79Q119.73 7.88 119.73 7.90L119.73 7.90L119.73 7.90Q119.73 7.94 119.97 8.00L119.97 8.00L119.97 8.00Q120.20 8.06 120.54 8.21L120.54 8.21L120.54 8.21Q120.88 8.36 121.20 8.61L121.20 8.61L121.20 8.61Q121.53 8.86 121.77 9.36L121.77 9.36L121.77 9.36Q122.01 9.86 122.01 10.53L122.01 10.53L122.01 10.53Q122.01 11.13 121.66 11.82L121.66 11.82L121.66 11.82Q121.31 12.50 120.83 12.82L120.83 12.82L120.83 12.82Q120.22 13.26 119.69 13.40L119.69 13.40L119.69 13.40Q119.15 13.55 118.40 13.55L118.40 13.55L118.40 13.55Q117.84 13.55 116.91 13.47L116.91 13.47L116.91 13.47Q115.99 13.40 115.89 13.40L115.89 13.40L115.89 13.40Q115.74 13.40 115.34 13.43L115.34 13.43L115.34 13.43Q114.94 13.45 114.69 13.45L114.69 13.45L114.49 13.45L114.49 13.45Q114.20 13.45 114.20 13.24L114.20 13.24L114.20 13.24Q114.20 13.05 114.35 13.05L114.35 13.05L114.35 13.05Q114.44 13.05 114.53 13.04L114.53 13.04L114.53 13.04Q114.63 13.03 114.67 13.03L114.67 13.03L114.67 13.03Q114.80 13.03 114.92 12.94L114.92 12.94L114.92 12.94Q115.04 12.85 115.16 12.54L115.16 12.54L115.16 12.54Q115.29 12.22 115.30 11.73L115.30 11.73L115.30 11.73Q115.35 10.82 115.35 7.36L115.35 7.36L115.35 4.98L115.35 4.98Q115.35 4.89 115.31 4.75L115.31 4.75L115.31 4.75Q115.28 4.62 115.17 4.40L115.17 4.40L115.17 4.40Q115.07 4.19 114.79 4.04L114.79 4.04L114.79 4.04Q114.52 3.89 114.11 3.89L114.11 3.89L114.11 3.89Q113.88 3.89 113.88 3.72ZM116.41 12.15L116.41 12.15L116.41 12.15Q116.41 12.99 117.78 12.99L117.78 12.99L118.10 12.99L118.10 12.99Q118.86 12.99 119.31 12.92L119.31 12.92L119.31 12.92Q119.97 12.81 120.39 12.24L120.39 12.24L120.39 12.24Q120.82 11.66 120.82 10.86L120.82 10.86L120.82 10.86Q120.82 10.18 120.57 9.68L120.57 9.68L120.57 9.68Q120.32 9.18 119.99 8.93L119.99 8.93L119.99 8.93Q119.67 8.68 119.23 8.54L119.23 8.54L119.23 8.54Q118.79 8.40 118.55 8.37L118.55 8.37L118.55 8.37Q118.30 8.34 118.08 8.34L118.08 8.34L118.08 8.34Q117.63 8.34 117.34 8.34L117.34 8.34L117.34 8.34Q117.05 8.33 116.98 8.33L116.98 8.33L116.98 8.33Q116.90 8.33 116.85 8.32L116.85 8.32L116.85 8.32Q116.80 8.32 116.77 8.32L116.77 8.32L116.77 8.32Q116.65 8.32 116.59 8.35L116.59 8.35L116.59 8.35Q116.54 8.39 116.49 8.62L116.49 8.62L116.49 8.62Q116.44 8.85 116.43 9.28L116.43 9.28L116.43 9.28Q116.42 9.72 116.42 10.58L116.42 10.58L116.42 10.70L116.42 10.70Q116.42 11.21 116.42 11.54L116.42 11.54L116.42 11.54Q116.42 11.86 116.42 11.99L116.42 11.99L116.42 11.99Q116.41 12.12 116.41 12.15ZM116.49 5.40L116.49 5.81L116.49 5.81Q116.49 6.51 116.50 6.90L116.50 6.90L116.50 6.90Q116.51 7.29 116.54 7.50L116.54 7.50L116.54 7.50Q116.56 7.71 116.59 7.77L116.59 7.77L116.59 7.77Q116.62 7.83 116.68 7.83L116.68 7.83L116.68 7.83Q117.07 7.87 117.39 7.87L117.39 7.87L118.29 7.87L118.29 7.87Q119.17 7.87 119.61 7.41L119.61 7.41L119.61 7.41Q120.05 6.94 120.05 6.22L120.05 6.22L120.05 6.22Q120.05 5.43 119.31 4.70L119.31 4.70L119.31 4.70Q118.58 3.96 117.22 3.96L117.22 3.96L117.22 3.96Q116.79 3.96 116.64 4.22L116.64 4.22L116.64 4.22Q116.49 4.48 116.49 5.40L116.49 5.40ZM129.70 3.70L129.70 3.70L129.70 3.70Q129.70 3.47 130.10 3.47L130.10 3.47L132.43 3.47L132.43 3.47Q132.75 3.47 133.17 3.45L133.17 3.45L133.17 3.45Q133.59 3.43 133.83 3.43L133.83 3.43L133.83 3.43Q135.09 3.43 135.98 4.07L135.98 4.07L135.98 4.07Q136.88 4.70 136.88 5.78L136.88 5.78L136.88 5.78Q136.88 6.50 136.60 7.03L136.60 7.03L136.60 7.03Q136.33 7.57 136.00 7.81L136.00 7.81L136.00 7.81Q135.67 8.05 135.40 8.22L135.40 8.22L135.40 8.22Q135.13 8.40 135.13 8.46L135.13 8.46L135.13 8.46Q135.13 8.62 136.30 10.27L136.30 10.27L136.30 10.27Q137.48 11.91 137.91 12.38L137.91 12.38L137.91 12.38Q138.45 13.03 139.20 13.03L139.20 13.03L139.20 13.03Q139.40 13.03 139.40 13.20L139.40 13.20L139.40 13.20Q139.40 13.41 139.23 13.48L139.23 13.48L139.23 13.48Q139.06 13.55 138.36 13.55L138.36 13.55L138.36 13.55Q137.70 13.55 137.16 13.23L137.16 13.23L137.16 13.23Q136.46 12.82 134.79 10.09L134.79 10.09L134.79 10.09Q134.69 9.94 134.65 9.87L134.65 9.87L134.65 9.87Q133.98 8.78 133.62 8.78L133.62 8.78L133.32 8.78L132.47 8.78L132.47 8.78Q132.30 8.78 132.26 8.92L132.26 8.92L132.26 8.92Q132.23 9.06 132.23 9.77L132.23 9.77L132.23 9.77Q132.23 10.44 132.23 10.88L132.23 10.88L132.23 10.88Q132.23 11.31 132.24 11.43L132.24 11.43L132.24 11.43Q132.24 11.55 132.24 11.63L132.24 11.63L132.24 11.63Q132.24 11.70 132.24 11.75L132.24 11.75L132.24 11.75Q132.24 12.32 132.51 12.63L132.51 12.63L132.51 12.63Q132.78 12.95 133.10 13.00L133.10 13.00L133.10 13.00Q133.43 13.05 133.70 13.11L133.70 13.11L133.70 13.11Q133.97 13.17 133.97 13.31L133.97 13.31L133.97 13.31Q133.97 13.54 133.71 13.54L133.71 13.54L133.71 13.54Q133.70 13.54 132.75 13.49L132.75 13.49L132.75 13.49Q131.80 13.44 131.71 13.44L131.71 13.44L131.71 13.44Q131.31 13.44 130.75 13.47L130.75 13.47L130.75 13.47Q130.19 13.50 130.17 13.50L130.17 13.50L130.17 13.50Q129.88 13.50 129.88 13.27L129.88 13.27L129.88 13.27Q129.88 13.12 130.06 13.05L130.06 13.05L130.06 13.05Q130.24 12.99 130.47 12.96L130.47 12.96L130.47 12.96Q130.69 12.94 130.87 12.66L130.87 12.66L130.87 12.66Q131.05 12.38 131.05 11.86L131.05 11.86L131.05 11.86Q131.05 11.49 131.06 9.90L131.06 9.90L131.06 9.90Q131.07 8.30 131.07 7.45L131.07 7.45L131.07 7.45Q131.07 6.58 131.06 5.86L131.06 5.86L131.06 5.86Q131.05 5.14 131.05 5.08L131.05 5.08L131.05 5.08Q131.05 4.56 130.84 4.29L130.84 4.29L130.84 4.29Q130.63 4.02 130.38 3.98L130.38 3.98L130.38 3.98Q130.12 3.95 129.91 3.89L129.91 3.89L129.91 3.89Q129.70 3.84 129.70 3.70ZM132.23 5.54L132.23 5.94L132.23 5.94Q132.23 7.38 132.24 7.72L132.24 7.72L132.24 7.72Q132.26 8.06 132.34 8.12L132.34 8.12L132.34 8.12Q132.55 8.25 132.94 8.25L132.94 8.25L133.08 8.25L133.49 8.25L133.49 8.25Q134.68 8.25 135.19 7.70L135.19 7.70L135.19 7.70Q135.70 7.15 135.70 6.30L135.70 6.30L135.70 6.30Q135.70 5.43 135.02 4.72L135.02 4.72L135.02 4.72Q134.34 4.00 132.97 4.00L132.97 4.00L132.97 4.00Q132.45 4.00 132.34 4.28L132.34 4.28L132.34 4.28Q132.23 4.55 132.23 5.54L132.23 5.54ZM146.68 8.69L146.68 8.69L146.68 8.69Q146.68 6.34 148.09 4.84L148.09 4.84L148.09 4.84Q149.51 3.33 152.10 3.33L152.10 3.33L152.10 3.33Q153.30 3.33 154.27 3.68L154.27 3.68L154.27 3.68Q155.23 4.03 155.79 4.54L155.79 4.54L155.79 4.54Q156.35 5.05 156.73 5.71L156.73 5.71L156.73 5.71Q157.11 6.37 157.25 6.92L157.25 6.92L157.25 6.92Q157.39 7.48 157.39 7.95L157.39 7.95L157.39 7.95Q157.39 9.86 156.65 11.16L156.65 11.16L156.65 11.16Q155.90 12.47 154.69 13.07L154.69 13.07L154.69 13.07Q153.48 13.66 151.90 13.66L151.90 13.66L151.90 13.66Q150.23 13.66 149.02 12.94L149.02 12.94L149.02 12.94Q147.81 12.21 147.24 11.10L147.24 11.10L147.24 11.10Q146.68 10.00 146.68 8.69ZM147.91 7.98L147.91 7.98L147.91 7.98Q147.91 8.54 148.06 9.19L148.06 9.19L148.06 9.19Q148.22 9.84 148.57 10.54L148.57 10.54L148.57 10.54Q148.92 11.23 149.41 11.78L149.41 11.78L149.41 11.78Q149.91 12.33 150.67 12.69L150.67 12.69L150.67 12.69Q151.44 13.05 152.35 13.05L152.35 13.05L152.35 13.05Q152.82 13.05 153.35 12.90L153.35 12.90L153.35 12.90Q153.87 12.75 154.39 12.45L154.39 12.45L154.39 12.45Q154.91 12.14 155.32 11.70L155.32 11.70L155.32 11.70Q155.72 11.26 155.98 10.62L155.98 10.62L155.98 10.62Q156.24 9.98 156.24 9.24L156.24 9.24L156.24 9.24Q156.24 6.71 154.91 5.30L154.91 5.30L154.91 5.30Q153.58 3.89 151.62 3.89L151.62 3.89L151.62 3.89Q150.08 3.89 148.99 4.93L148.99 4.93L148.99 4.93Q147.91 5.96 147.91 7.98ZM164.60 13.33L164.60 13.33L164.60 13.33Q164.60 13.13 164.81 13.06L164.81 13.06L164.81 13.06Q165.26 12.89 165.59 12.31L165.59 12.31L165.59 12.31Q165.93 11.73 167.26 8.83L167.26 8.83L167.26 8.83Q168.63 5.87 169.68 3.63L169.68 3.63L169.68 3.63Q169.78 3.42 169.85 3.36L169.85 3.36L169.85 3.36Q169.93 3.30 170.10 3.30L170.10 3.30L170.10 3.30Q170.23 3.30 170.27 3.36L170.27 3.36L170.27 3.36Q170.31 3.42 170.45 3.82L170.45 3.82L170.45 3.82Q170.53 4.06 170.60 4.23L170.60 4.23L170.60 4.23Q170.66 4.40 170.80 4.77L170.80 4.77L170.80 4.77Q170.94 5.15 171.11 5.56L171.11 5.56L171.11 5.56Q171.56 6.66 172.65 9.22L172.65 9.22L172.65 9.22Q173.75 11.77 173.85 11.98L173.85 11.98L173.85 11.98Q174.09 12.46 174.38 12.71L174.38 12.71L174.38 12.71Q174.68 12.95 174.89 12.97L174.89 12.97L174.89 12.97Q175.11 12.99 175.26 13.04L175.26 13.04L175.26 13.04Q175.41 13.09 175.41 13.26L175.41 13.26L175.41 13.26Q175.41 13.47 175.03 13.47L175.03 13.47L175.03 13.47Q174.87 13.47 174.43 13.43L174.43 13.43L174.43 13.43Q173.98 13.38 173.77 13.38L173.77 13.38L173.77 13.38Q173.50 13.38 173.08 13.41L173.08 13.41L173.08 13.41Q172.66 13.44 172.47 13.44L172.47 13.44L172.47 13.44Q172.03 13.44 171.91 13.40L171.91 13.40L171.91 13.40Q171.79 13.37 171.79 13.24L171.79 13.24L171.79 13.24Q171.79 13.15 171.91 13.08L171.91 13.08L171.91 13.08Q172.02 13.02 172.14 13.00L172.14 13.00L172.14 13.00Q172.27 12.98 172.38 12.87L172.38 12.87L172.38 12.87Q172.49 12.77 172.49 12.59L172.49 12.59L172.49 12.59Q172.49 12.28 172.14 11.33L172.14 11.33L172.14 11.33Q171.79 10.37 171.56 9.93L171.56 9.93L171.56 9.93Q171.43 9.69 170.98 9.69L170.98 9.69L170.98 9.69Q170.91 9.69 170.37 9.70L170.37 9.70L170.37 9.70Q169.82 9.72 169.29 9.72L169.29 9.72L168.55 9.72L168.55 9.72Q167.92 9.72 167.75 9.79L167.75 9.79L167.75 9.79Q167.59 9.86 167.47 10.12L167.47 10.12L167.47 10.12Q167.38 10.30 167.19 10.70L167.19 10.70L167.19 10.70Q166.99 11.10 166.92 11.26L166.92 11.26L166.92 11.26Q166.85 11.41 166.75 11.65L166.75 11.65L166.75 11.65Q166.64 11.90 166.61 12.05L166.61 12.05L166.61 12.05Q166.57 12.19 166.57 12.31L166.57 12.31L166.57 12.31Q166.57 12.63 166.73 12.80L166.73 12.80L166.73 12.80Q166.89 12.96 167.09 12.98L167.09 12.98L167.09 12.98Q167.29 13.01 167.45 13.06L167.45 13.06L167.45 13.06Q167.61 13.12 167.61 13.26L167.61 13.26L167.61 13.26Q167.61 13.36 167.57 13.40L167.57 13.40L167.57 13.40Q167.52 13.45 167.37 13.45L167.37 13.45L167.37 13.45Q167.29 13.45 166.89 13.45L166.89 13.45L166.89 13.45Q166.49 13.44 166.21 13.44L166.21 13.44L166.21 13.44Q165.90 13.44 165.51 13.47L165.51 13.47L165.51 13.47Q165.13 13.50 165.00 13.50L165.00 13.50L165.00 13.50Q164.60 13.50 164.60 13.33ZM168.11 8.71L168.11 8.71L168.11 8.71Q168.11 8.89 168.24 8.93L168.24 8.93L168.24 8.93Q168.36 8.97 168.83 8.97L168.83 8.97L169.26 8.97L170.59 8.96L170.59 8.96Q171.14 8.96 171.14 8.74L171.14 8.74L171.14 8.74Q171.14 8.55 170.45 7.01L170.45 7.01L170.45 7.01Q169.76 5.46 169.58 5.46L169.58 5.46L169.58 5.46Q169.46 5.46 168.78 7.01L168.78 7.01L168.78 7.01Q168.11 8.55 168.11 8.71ZM182.97 3.64L182.97 3.64L182.97 3.64Q182.97 3.51 183.08 3.49L183.08 3.49L183.08 3.49Q183.20 3.47 183.68 3.47L183.68 3.47L184.90 3.47L184.90 3.47Q185.25 3.47 186.19 3.44L186.19 3.44L186.19 3.44Q187.12 3.42 187.63 3.42L187.63 3.42L187.63 3.42Q188.59 3.42 189.56 3.71L189.56 3.71L189.56 3.71Q190.53 4.00 191.34 4.56L191.34 4.56L191.34 4.56Q192.15 5.11 192.65 6.00L192.65 6.00L192.65 6.00Q193.16 6.89 193.16 7.98L193.16 7.98L193.16 7.98Q193.16 8.96 193.02 9.68L193.02 9.68L193.02 9.68Q192.89 10.40 192.58 10.93L192.58 10.93L192.58 10.93Q192.28 11.45 191.97 11.78L191.97 11.78L191.97 11.78Q191.66 12.11 191.13 12.56L191.13 12.56L191.13 12.56Q190.71 12.89 189.91 13.19L189.91 13.19L189.91 13.19Q189.11 13.48 188.27 13.48L188.27 13.48L188.27 13.48Q188.19 13.48 186.84 13.45L186.84 13.45L186.84 13.45Q185.50 13.41 184.91 13.41L184.91 13.41L184.91 13.41Q184.42 13.41 184.00 13.45L184.00 13.45L184.00 13.45Q183.58 13.48 183.51 13.48L183.51 13.48L183.51 13.48Q183.18 13.48 183.18 13.30L183.18 13.30L183.18 13.30Q183.18 13.19 183.22 13.14L183.22 13.14L183.22 13.14Q183.27 13.09 183.43 13.05L183.43 13.05L183.43 13.05Q183.60 13.01 183.67 12.98L183.67 12.98L183.67 12.98Q183.89 12.88 184.08 12.61L184.08 12.61L184.08 12.61Q184.27 12.33 184.27 12.07L184.27 12.07L184.27 12.07Q184.27 11.28 184.27 10.07L184.27 10.07L184.27 10.07Q184.28 8.85 184.28 8.27L184.28 8.27L184.28 8.27Q184.28 7.77 184.27 6.70L184.27 6.70L184.27 6.70Q184.27 5.63 184.27 4.72L184.27 4.72L184.27 4.72Q184.27 4.48 184.04 4.23L184.04 4.23L184.04 4.23Q183.81 3.99 183.53 3.98L183.53 3.98L183.53 3.98Q183.33 3.96 183.24 3.95L183.24 3.95L183.24 3.95Q183.15 3.93 183.06 3.86L183.06 3.86L183.06 3.86Q182.97 3.78 182.97 3.64ZM185.44 11.47L185.44 11.47L185.44 11.47Q185.44 11.73 185.45 11.90L185.45 11.90L185.45 11.90Q185.46 12.07 185.51 12.21L185.51 12.21L185.51 12.21Q185.56 12.35 185.58 12.40L185.58 12.40L185.58 12.40Q185.61 12.46 185.75 12.53L185.75 12.53L185.75 12.53Q185.89 12.60 185.97 12.62L185.97 12.62L185.97 12.62Q186.05 12.64 186.30 12.71L186.30 12.71L186.30 12.71Q186.55 12.78 186.72 12.82L186.72 12.82L186.72 12.82Q187.21 12.96 187.74 12.96L187.74 12.96L188.02 12.96L188.02 12.96Q188.97 12.96 189.64 12.69L189.64 12.69L189.64 12.69Q190.32 12.42 190.93 11.83L190.93 11.83L190.93 11.83Q191.97 10.84 191.97 8.61L191.97 8.61L191.97 8.61Q191.97 7.49 191.53 6.58L191.53 6.58L191.53 6.58Q191.09 5.67 190.37 5.13L190.37 5.13L190.37 5.13Q189.66 4.59 188.83 4.30L188.83 4.30L188.83 4.30Q188.01 4.02 187.17 4.02L187.17 4.02L187.17 4.02Q186.79 4.02 186.61 4.02L186.61 4.02L186.61 4.02Q186.44 4.02 186.21 4.05L186.21 4.05L186.21 4.05Q185.98 4.09 185.90 4.11L185.90 4.11L185.90 4.11Q185.82 4.13 185.71 4.25L185.71 4.25L185.71 4.25Q185.60 4.37 185.58 4.45L185.58 4.45L185.58 4.45Q185.56 4.54 185.52 4.78L185.52 4.78L185.52 4.78Q185.49 5.03 185.49 5.21L185.49 5.21L185.49 5.21Q185.49 5.39 185.49 5.80L185.49 5.80L185.49 5.80Q185.49 6.10 185.47 7.24L185.47 7.24L185.47 7.24Q185.46 8.39 185.46 8.48L185.46 8.48L185.46 8.48Q185.46 9.32 185.45 10.30L185.45 10.30L185.45 10.30Q185.44 11.28 185.44 11.47Z"></path></g></svg>